<svg width="666.66669" height="666.66669" xmlns="http://www.w3.org/2000/svg" xmlns:svg="http://www.w3.org/2000/svg" viewBox="180 120 400 400">
 <metadata id="metadata8">image/svg+xml</metadata>
 <g>
  <title>Layer 1</title>
  <g id="g10" transform="matrix(1.3333333,0,0,-1.3333333,0,666.66667) ">
   <g id="g12" transform="scale(0.10000000149011612) ">
    <path fill="#ffffff" fill-rule="nonzero" d="m606.453,4407.96l-26.215,80.32l11.203,0l12.508,-39.57c3.457,-10.84 6.438,-20.61 8.586,-30.02l0.238,0c2.262,9.29 5.602,19.42 9.176,29.91l13.582,39.68l11.086,0l-28.722,-80.32l-11.442,0" id="path34"/>
    <path fill="#ffffff" fill-rule="nonzero" d="m696.938,4445.62l-31.223,0l0,-28.96l34.797,0l0,-8.7l-45.164,0l0,80.32l43.379,0l0,-8.7l-33.012,0l0,-25.38l31.223,0l0,-8.58" id="path36"/>
    <path fill="#ffffff" fill-rule="nonzero" d="m770.133,4410.58c-3.817,-1.91 -11.442,-3.81 -21.211,-3.81c-22.645,0 -39.684,14.3 -39.684,40.63c0,25.15 17.039,42.19 41.95,42.19c10.007,0 16.324,-2.14 19.066,-3.57l-2.504,-8.47c-3.934,1.91 -9.531,3.34 -16.207,3.34c-18.828,0 -31.344,-12.03 -31.344,-33.12c0,-19.67 11.324,-32.3 30.864,-32.3c6.32,0 12.753,1.31 16.925,3.33l2.145,-8.22" id="path38"/>
    <path fill="#ffffff" fill-rule="nonzero" d="m801.746,4479.46l-24.426,0l0,8.82l59.461,0l0,-8.82l-24.547,0l0,-71.5l-10.488,0l0,71.5" id="path40"/>
    <path fill="#ffffff" fill-rule="nonzero" d="m848.844,4447.64c0,-17.16 9.297,-32.53 25.625,-32.53c16.445,0 25.742,15.14 25.742,33.37c0,15.97 -8.348,32.65 -25.625,32.65c-17.16,0 -25.742,-15.85 -25.742,-33.49zm62.328,1.32c0,-27.65 -16.801,-42.31 -37.301,-42.31c-21.215,0 -36.105,16.45 -36.105,40.75c0,25.51 15.847,42.19 37.297,42.19c21.929,0 36.109,-16.8 36.109,-40.63" id="path42"/>
    <path fill="#ffffff" fill-rule="nonzero" d="m935.043,4450.62l10.605,0c11.086,0 18.118,6.08 18.118,15.26c0,10.37 -7.504,14.89 -18.473,15.01c-5.004,0 -8.578,-0.48 -10.25,-0.95l0,-29.32zm-10.363,36.59c5.242,1.07 12.746,1.67 19.898,1.67c11.082,0 18.235,-2.03 23.238,-6.56c4.055,-3.57 6.317,-9.05 6.317,-15.25c0,-10.61 -6.672,-17.64 -15.133,-20.5l0,-0.36c6.195,-2.14 9.891,-7.86 11.797,-16.21c2.621,-11.2 4.531,-18.94 6.195,-22.04l-10.722,0c-1.313,2.27 -3.102,9.17 -5.368,19.18c-2.382,11.09 -6.668,15.26 -16.082,15.62l-9.777,0l0,-34.8l-10.363,0l0,79.25" id="path44"/>
    <path fill="#ffffff" fill-rule="nonzero" d="m682.301,4240.66l-69.082,0l0,-64.07l76.992,0l0,-19.25l-99.934,0l0,177.72l95.977,0l0,-19.25l-73.035,0l0,-56.16l69.082,0l0,-18.99" id="path46"/>
    <path fill="#ffffff" fill-rule="nonzero" d="m742.945,4247.26c5.008,-1.32 11.336,-1.85 18.985,-1.85c27.683,0 44.558,13.45 44.558,37.97c0,23.47 -16.609,34.8 -41.922,34.8c-10.019,0 -17.668,-0.79 -21.621,-1.84l0,-69.08zm-22.941,85.69c11.074,1.85 25.578,3.43 44.035,3.43c22.676,0 39.285,-5.27 49.832,-14.77c9.758,-8.43 15.559,-21.36 15.559,-37.18c0,-16.08 -4.746,-28.74 -13.711,-37.97c-12.129,-12.91 -31.906,-19.51 -54.317,-19.51c-6.855,0 -13.183,0.27 -18.457,1.59l0,-71.2l-22.941,0l0,175.61" id="path48"/>
    <path fill="#ffffff" fill-rule="nonzero" d="m857.125,4185.29c10.281,-6.33 25.313,-11.6 41.133,-11.6c23.465,0 37.176,12.4 37.176,30.33c0,16.61 -9.493,26.1 -33.485,35.33c-29.004,10.28 -46.933,25.31 -46.933,50.36c0,27.68 22.937,48.25 57.48,48.25c18.192,0 31.375,-4.22 39.285,-8.7l-6.328,-18.72c-5.801,3.16 -17.664,8.44 -33.75,8.44c-24.258,0 -33.484,-14.51 -33.484,-26.64c0,-16.61 10.808,-24.78 35.332,-34.27c30.058,-11.61 45.351,-26.11 45.351,-52.21c0,-27.42 -20.304,-51.15 -62.226,-51.15c-17.141,0 -35.86,5.01 -45.352,11.34l5.801,19.24" id="path50"/>
    <path fill="#31b98d" fill-rule="nonzero" d="m3217.8,3355.78c0,-60.75 -49.25,-110 -110,-110l-1215.6,0c-60.75,0 -110,49.25 -110,110l0,247.21c0,60.75 49.25,110 110,110l1215.6,0c60.75,0 110,-49.25 110,-110l0,-247.21zm-13.26,-744.66c0,-60.75 -49.25,-110 -110,-110l-137.68,0c-60.75,0 -110,49.25 -110,110l0,137.69c0,60.75 49.25,110 110,110l137.68,0c60.75,0 110,-49.25 110,-110l0,-137.69zm0,-507.05c0,-60.75 -49.25,-110 -110,-110l-137.68,0c-60.75,0 -110,49.25 -110,110l0,137.68c0,60.75 49.25,110 110,110l137.68,0c60.75,0 110,-49.25 110,-110l0,-137.68zm0,-507.06c0,-60.75 -49.25,-110 -110,-110l-137.68,0c-60.75,0 -110,49.25 -110,110l0,137.68c0,60.75 49.25,110 110,110l137.68,0c60.75,0 110,-49.25 110,-110l0,-137.68zm-525.7,1014.11c0,-60.75 -49.25,-110 -110,-110l-137.68,0c-60.75,0 -110,49.25 -110,110l0,137.69c0,60.75 49.25,110 110,110l137.68,0c60.75,0 110,-49.25 110,-110l0,-137.69zm0,-507.05c0,-60.75 -49.25,-110 -110,-110l-137.68,0c-60.75,0 -110,49.25 -110,110l0,137.68c0,60.75 49.25,110 110,110l137.68,0c60.75,0 110,-49.25 110,-110l0,-137.68zm0,-507.06c0,-60.75 -49.25,-110 -110,-110l-137.68,0c-60.75,0 -110,49.25 -110,110l0,137.68c0,60.75 49.25,110 110,110l137.68,0c60.75,0 110,-49.25 110,-110l0,-137.68zm-525.7,1014.11c0,-60.75 -49.25,-110 -110,-110l-137.68,0c-60.75,0 -110,49.25 -110,110l0,137.69c0,60.75 49.25,110 110,110l137.68,0c60.75,0 110,-49.25 110,-110l0,-137.69zm0,-507.05c0,-60.75 -49.25,-110 -110,-110l-137.68,0c-60.75,0 -110,49.25 -110,110l0,137.68c0,60.75 49.25,110 110,110l137.68,0c60.75,0 110,-49.25 110,-110l0,-137.68zm0,-507.06c0,-60.75 -49.25,-110 -110,-110l-137.68,0c-60.75,0 -110,49.25 -110,110l0,137.68c0,60.75 49.25,110 110,110l137.68,0c60.75,0 110,-49.25 110,-110l0,-137.68zm1132.71,2290.91l-1571.7,0c-138.07,0 -250,-111.93 -250,-250l0,-2213.52c0,-138.07 111.93,-250 250,-250l1571.7,0c138.07,0 250,111.93 250,250l0,2351.2c0,138.07 -111.93,250 -250,250" id="path52"/>
   </g>
  </g>
 </g>
</svg>