<svg fill="rgba(49, 185, 141, 1)" height="24" viewBox="0 0 24 24" width="24" xmlns="http://www.w3.org/2000/svg"><path d="m12 0c6.627417 0 12 5.372583 12 12s-5.372583 12-12 12-12-5.372583-12-12 5.372583-12 12-12zm0 2c-5.5228475 0-10 4.4771525-10 10s4.4771525 10 10 10 10-4.4771525 10-10-4.4771525-10-10-10zm-5 7h10c.5522847 0 1 .44771525 1 1 0 .5522847-.4477153 1-1 1h-10c-.55228475 0-1-.4477153-1-1 0-.55228475.44771525-1 1-1zm0 4h10c.5522847 0 1 .4477153 1 1s-.4477153 1-1 1h-10c-.55228475 0-1-.4477153-1-1s.44771525-1 1-1z"/></svg>
