<svg fill="rgba(49, 185, 141, 1)" height="24" viewBox="0 0 24 24" width="24" xmlns="http://www.w3.org/2000/svg"><path d="m22 20v-5c0-.5522847.4477153-1 1-1s1 .4477153 1 1v6c0 .5522847-.4477153 1-1 1h-6c-.5522847 0-1-.4477153-1-1s.4477153-1 1-1zm-22 1v-6c0-.5522847.44771525-1 1-1s1 .4477153 1 1v5h5c.55228475 0 1 .4477153 1 1s-.44771525 1-1 1h-6c-.55228475 0-1-.4477153-1-1zm24-18v6c0 .55228475-.4477153 1-1 1s-1-.44771525-1-1v-5h-5c-.5522847 0-1-.44771525-1-1s.4477153-1 1-1h6c.5522847 0 1 .44771525 1 1zm-22 1v5c0 .55228475-.44771525 1-1 1s-1-.44771525-1-1v-6c0-.55228475.44771525-1 1-1h6c.55228475 0 1 .44771525 1 1s-.44771525 1-1 1z" fill-rule="evenodd"/></svg>
