<svg fill="rgba(49, 185, 141, 1)" height="24" viewBox="0 0 24 24" width="24" xmlns="http://www.w3.org/2000/svg">
    <path d="m1 23h22zm10-6.2268438v-15.7731562c0-.55228475.4477153-1 1-1s1 .44771525 1 1v15.7731562l7.3356362-6.5205655c.4127827-.36691804 1.0448551-.32973731 1.4117731.0830455.366918.4127827.3297373 1.0448551-.0830455 1.4117731l-8.9905274 7.99158c-.3733454.3412611-.9518333.3518573-1.3382002.00842-.0032143-.0027358-.0063506-.0055663-.0094726-.00842l-8.99052744-7.99158c-.41278277-.366918-.4499635-.9989904-.08304548-1.4117731.36691802-.41278281.99899039-.44996354 1.41177316-.0830455zm-10 5.2268438h22c.5522847 0 1 .4477153 1 1s-.4477153 1-1 1h-22c-.55228475 0-1-.4477153-1-1s.44771525-1 1-1z"/>
</svg>
