<svg height="46" viewBox="0 0 174 46" width="174" xmlns="http://www.w3.org/2000/svg"><g fill="none" fill-rule="evenodd" transform="translate(-1 -2)"><g fill-rule="nonzero" transform="translate(.096154)"><path d="m10.7760829 31.8545455c.6316956.8693592 1.3108673 1.7424108 2.0337422 2.6181818h-3.7778714l-4.78170478 10.9090909h39.24900428l-4.7817047-10.9090909h-3.7196813c.7228749-.875771 1.4020466-1.7488226 2.0337422-2.6181818h2.5578096c.5292365 0 1.0078658.3102627 1.2179257.7894981l5.9293139 13.5272727c.2908721.6636023-.0186133 1.4341879-.6912551 1.7211511-.1662759.0709368-.3455139.1075326-.5266706.1075326h-43.28796367c-.73283938 0-1.32692308-.5861-1.32692308-1.3090909 0-.1787221.03709431-.3555514.1089974-.5195928l5.92931393-13.5272727c.21005986-.4792354.68868919-.7894981 1.21792568-.7894981z" fill="#13293d"/><path d="m23.9038462 2.61818182c8.7944038 0 15.9230769 7.03330909 15.9230769 15.70909088 0 10.6036364-15.9230769 23.5636364-15.9230769 23.5636364s-15.92307697-12.96-15.92307697-23.5636364c0-8.67578179 7.12867307-15.70909088 15.92307697-15.70909088zm8.8461538 14.67829318h-6.7626968v7.342486h-.1536976c-1.3576694 0-2.4335422-.1892374-3.2276507-.567718-.7941086-.3784805-1.383277-1.0345036-1.7675231-1.968089-.384246-.9335854-.5763662-2.2456316-.5763662-3.9361781 0-.9335854.0832521-1.9050042.2497587-2.9142857s.4546869-1.7536154.8645493-2.2330242c.2561641-.3280164 1.8059332-.4920222 4.6493541-.4920222.9478069 0 2.2670319.0252316 3.9577145.0756957l1.3832789.0378479c.1024656-.4037126.2049297-1.1038911.3073953-2.1005566.1024656-.99666547.1536977-1.74730731.1536977-2.25194805-2.7665716-.58033686-5.1360534-.87050093-7.1085165-.87050093-3.7656113 0-6.6858376.93987928-8.7607663 2.81966608-2.0749287 1.8797867-3.1123775 4.7120404-3.1123775 8.496846 0 3.7091094.9862168 6.4593602 2.9586799 8.2508349 1.9724631 1.7914746 4.7005691 2.6871985 8.1844 2.6871985 1.0502726 0 2.3438816-.1261583 3.8808658-.3784787s3.1636015-.6560269 4.8799005-1.2111317z" fill="#ff4380"/></g><path d="m74.728 23.624v10.26c-1.608008.5280026-3.1319928.9119988-4.572 1.152s-2.6519951.36-3.636.36c-3.2640163 0-5.8199908-.8519915-7.668-2.556s-2.772-4.3199824-2.772-7.848c0-3.600018.9719903-6.2939911 2.916-8.082s4.6799824-2.682 8.208-2.682c1.8480092 0 4.067987.2759972 6.66.828 0 .4800024-.0479995 1.1939953-.144 2.142s-.1919995 1.6139981-.288 1.998l-1.296-.036c-1.5840079-.0480002-2.8199956-.072-3.708-.072-2.6640133 0-4.1159988.1559984-4.356.468-.3840019.4560023-.6539992 1.1639952-.81 2.124s-.234 1.8839956-.234 2.772c0 1.608008.1799982 2.8559956.54 3.744s.9119963 1.5119982 1.656 1.872 1.7519936.54 3.024.54h.144v-6.984zm12.78 7.056c.600003 0 1.7159918-.0599994 3.348-.18.2160011 0 .6119971-.0239998 1.188-.072l.54 3.708c-1.8480092.8640043-4.2479852 1.296-7.2 1.296-2.7600138 0-4.8779926-.695993-6.354-2.088s-2.214-3.491986-2.214-6.3c0-1.4400072.1859981-2.8319933.558-4.176s.7979976-2.2799974 1.278-2.808c.5040025-.5280026 1.4399932-.9839981 2.808-1.368s2.7239933-.576 4.068-.576c2.1600108 0 3.7799946.3839962 4.86 1.152s1.7879983 1.8299932 2.124 3.186.504 3.1739886.504 5.454c-1.6320082.0960005-3.2279922.144-4.788.144h-5.112c0 .7680038.1619984 1.3439981.486 1.728s.785997.6299995 1.386.738 1.4399946.162 2.52.162zm-4.032-8.28c-.1440007.0720004-.2519996.3839972-.324.936s-.1199999 1.1759965-.144 1.872h1.872c1.1280056 0 1.9439975-.0119999 2.448-.036 0-1.1520058-.1619984-1.9679976-.486-2.448s-.881996-.72-1.674-.72c-.6480032 0-1.2119976.1319987-1.692.396zm19.692 13.068c-2.880014 0-5.0339929-.6779932-6.462-2.034s-2.142-3.4979854-2.142-6.426c0-1.608008.1499985-3.0179939.45-4.23s.6659978-2.0579976 1.098-2.538c.5520028-.6240031 1.5659926-1.139998 3.042-1.548 1.476007-.408002 2.861994-.612 4.158-.612 3.096015 0 5.303993.6599934 6.624 1.98s1.98 3.4319855 1.98 6.336c0 3.1200156-.707993 5.4119927-2.124 6.876s-3.623985 2.196-6.624 2.196zm.108-4.212c.936005 0 1.547999-.3299967 1.836-.99s.432-1.8299916.432-3.51c0-1.1760059-.059999-2.0819968-.18-2.718s-.341998-1.1039985-.666-1.404-.821997-.45-1.494-.45c-.960005 0-1.511999.0839992-1.656.252-.192001.1680008-.347999.6959956-.468 1.584s-.18 1.8119952-.18 2.772c0 1.6320082.161998 2.7839966.486 3.456s.953995 1.008 1.89 1.008zm22.068 3.744h-6.48v-16.02h-5.796v-4.5h18.072v4.5h-5.796zm7.92-20.52h6.48v20.52h-6.48zm10.044 0h14.724v4.464h-8.244v4.068h6.804v3.924h-6.804v8.064h-6.48zm16.848 0h14.724v4.464h-8.244v4.068h6.804v3.924h-6.804v8.064h-6.48z" fill="#13293d"/></g></svg>