<svg height="24" viewBox="0 0 24 24" width="24" xmlns="http://www.w3.org/2000/svg" xmlns:xlink="http://www.w3.org/1999/xlink"><g fill="rgba(49, 185, 141, 1)" fill-rule="nonzero"><path d="m2 5v14h20v-14zm0-2h20c1.1045695 0 2 .8954305 2 2v14c0 1.1045695-.8954305 2-2 2h-20c-1.1045695 0-2-.8954305-2-2v-14c0-1.1045695.8954305-2 2-2z" mask="url(#a)"/><path d="m1 16.4142136-1.41421356-1.4142136 4.70710678-4.7071068c.39052429-.39052427 1.02368927-.39052427 1.41421356 0l4.70710682 4.7071068-1.4142136 1.4142136-4-4z" mask="url(#a)"/><path d="m6.06726728 21.4126129-1.47988015-1.3453456 10.67267277-11.73994009c.3840693-.42247619 1.0433172-.43816369 1.4470469-.03443399l7.7071068 7.70710678-1.4142136 1.4142136-6.965527-6.965527z" mask="url(#a)"/></g></svg>
