<svg fill="rgba(49, 185, 141, 1)" height="24" viewBox="0 0 24 24" width="24" xmlns="http://www.w3.org/2000/svg"><path d="m1 0h4c.55228475 0 1 .44771525 1 1v22c0 .5522847-.44771525 1-1 1h-4c-.55228475 0-1-.4477153-1-1v-22c0-.55228475.44771525-1 1-1zm7 0h8c.5522847 0 1 .44771525 1 1v22c0 .5522847-.4477153 1-1 1h-8c-.55228475 0-1-.4477153-1-1v-22c0-.55228475.44771525-1 1-1zm11 0h4c.5522847 0 1 .44771525 1 1v22c0 .5522847-.4477153 1-1 1h-4c-.5522847 0-1-.4477153-1-1v-22c0-.55228475.4477153-1 1-1zm-17 2v20h2v-20zm7 0v20h6v-20zm11 0v20h2v-20z"/></svg>
