<svg xmlns:dc="http://purl.org/dc/elements/1.1/" xmlns:cc="http://creativecommons.org/ns#" xmlns:rdf="http://www.w3.org/1999/02/22-rdf-syntax-ns#" xmlns:svg="http://www.w3.org/2000/svg" xmlns="http://www.w3.org/2000/svg" viewBox="150 115 600 600" height="400" width="400" xml:space="preserve" id="svg2" version="1.1"><metadata id="metadata8"><rdf:RDF><cc:Work rdf:about=""><dc:format>image/svg+xml</dc:format><dc:type rdf:resource="http://purl.org/dc/dcmitype/StillImage"/></cc:Work></rdf:RDF></metadata><defs id="defs6"/><g transform="matrix(1.3333333,0,0,-1.3333333,0,830.38667)" id="g10"><g transform="scale(0.1)" id="g12"><path id="path14" style="fill: #31b98d;fill-opacity:1;fill-rule:nonzero;stroke:none;" d="M 5162.52,981.672 H 1564.87 c -203.55,0 -369.09,165.538 -369.09,369.088 v 3526.45 c 0,203.47 165.54,369 369.09,369 h 3597.65 c 203.46,0 369,-165.53 369,-369 V 1350.76 c 0,-203.55 -165.54,-369.088 -369,-369.088 z M 1564.87,5087.6 c -116.05,0 -210.48,-94.43 -210.48,-210.39 V 1350.76 c 0,-116.03 94.43,-210.48 210.48,-210.48 h 3597.65 c 115.95,0 210.39,94.45 210.39,210.48 v 3526.45 c 0,115.96 -94.44,210.39 -210.39,210.39 H 1564.87"/><path id="path16" style="fill: #31b98d;fill-opacity:1;fill-rule:nonzero;stroke:none;" d="M 5421.13,2962.04 H 1306.26 v 158.61 h 4114.87 v -158.61"/><path id="path18" style="fill: #31b98d;fill-opacity:1;fill-rule:nonzero;stroke:none;" d="M 3442.96,983.953 H 3284.34 V 5098.81 h 158.62 V 983.953"/><path id="path20" style="fill: #31b98d;fill-opacity:1;fill-rule:nonzero;stroke:none;" d="M 2921.27,3884.17 H 1840.62 v 158.61 h 1080.65 v -158.61"/><path id="path22" style="fill: #31b98d;fill-opacity:1;fill-rule:nonzero;stroke:none;" d="M 4886.68,3884.17 H 3806.12 v 158.61 h 1080.56 v -158.61"/><path id="path24" style="fill: #31b98d;fill-opacity:1;fill-rule:nonzero;stroke:none;" d="M 4852.68,2162.23 H 3772.13 v 158.62 h 1080.55 v -158.62"/><path id="path26" style="fill: #31b98d;fill-opacity:1;fill-rule:nonzero;stroke:none;" d="M 4852.68,1736.8 H 3772.13 v 158.62 H 4852.68 V 1736.8"/><path id="path28" style="fill: #31b98d;fill-opacity:1;fill-rule:nonzero;stroke:none;" d="M 2460.2,3423.2 H 2301.59 V 4503.75 H 2460.2 V 3423.2"/><path id="path30" style="fill: #31b98d;fill-opacity:1;fill-rule:nonzero;stroke:none;" d="m 2706.87,1599.26 -764.07,764.06 112.13,112.13 764.06,-764.07 -112.12,-112.12"/><path id="path32" style="fill: #31b98d;fill-opacity:1;fill-rule:nonzero;stroke:none;" d="m 2054.93,1599.26 -112.13,112.12 764.07,764.07 112.12,-112.13 -764.06,-764.06"/></g></g></svg>