<svg height="24" viewBox="0 0 24 24" width="24" xmlns="http://www.w3.org/2000/svg"><g><path d="m5.15073223 15.5762846c.3295803.4535787.68393078.9090839 1.06108285 1.3660079h-1.97106332l-2.49480249 5.6916996h20.47774143l-2.4948025-5.6916996h-1.9407033c.3771521-.456924.7315026-.9124292 1.0610829-1.3660079h1.3345093c.2761234 0 .5258431.1618762.6354395.4119121l3.0935551 7.0577075c.1517594.3462273-.0097113.7482719-.3606548.8979918-.0867527.0370105-.1802682.056104-.2747847.056104h-22.58502451c-.38235098 0-.69230769-.3057913-.69230769-.683004 0-.0932463.01935355-.185505.05686821-.2710918l3.09355509-7.0577075c.10959645-.2500359.3593161-.4119121.63543949-.4119121z"/><path fill="rgba(255, 67, 128, 1)" d="m12 .32252964c4.5883846 0 8.3076923 3.66955257 8.3076923 8.19604744 0 5.53233202-8.3076923 12.29407112-8.3076923 12.29407112s-8.30769231-6.7617391-8.30769231-12.29407112c0-4.52649487 3.71930769-8.19604744 8.30769231-8.19604744zm4.6153846 7.6582399h-3.5283635v3.83086226h-.0801901c-.7083492 0-1.2696742-.0987325-1.6839917-.2962006-.4143175-.1974682-.7217097-.5397411-.9221859-1.0268291s-.3007128-1.17163391-.3007128-2.05365816c0-.48708802.0434359-.99391525.1303089-1.5204969.086873-.52658164.2372279-.91492978.4510692-1.16505606.1336508-.17113903.942226-.25670727 2.4257499-.25670727.494508 0 1.1827993.01316435 2.0648946.03949343l.7217107.01974671c.0534603-.21063266.1069198-.57594319.1603802-1.09594256.0534603-.51999938.08019-.9116386.08019-1.17492942-1.4434286-.30278445-2.67968-.4541744-3.7087912-.4541744-1.9646668 0-3.48826305.4903718-4.57083455 1.47113011-1.08257149.98075831-1.62384912 2.45845589-1.62384912 4.43313705 0 1.93518757.51454787 3.37010097 1.54365904 4.30478337 1.02911118.9346825 2.45247083 1.4020167 4.27012173 1.4020167.5479683 0 1.2228948-.0658218 2.0247996-.1974672s1.6505746-.3422749 2.546035-.6318948z"/></g></svg>
